# xmcd
#
# Track frame offsets: 
#        150
#        13497
#        37056
#        62599
#        82102
#        94639
#        115411
#        141006
#        154338
#        175027
#
# Disc length: 2523 seconds
#
# Revision: 0
# Processed by: cddbd v1.5.2PL0 Copyright (c) Steve Scherf et al.
# Submitted via: ExactAudioCopy v0.99pb5
#
DISCID=8609d90a
DTITLE=The Dirty Blues Band - Stone Dirt
DYEAR=1968
DGENRE=Blues Rock
TTITLE0=Bring It On Home
TTITLE1=It's My Own Fault Baby
TTITLE2=I Can't Quit You Baby
TTITLE3=Tell Me
TTITLE4=She' The One
TTITLE5=My Baby
TTITLE6=Sittin' Down Wonderin'
TTITLE7=Six Sides
TTITLE8=You've Got To Love Her With A Feeliing
TTITLE9=Gone Too Long
EXTD=
EXTT0=
EXTT1=
EXTT2=
EXTT3=
EXTT4=
EXTT5=
EXTT6=
EXTT7=
EXTT8=
EXTT9=
PLAYORDER=
